# xmcd
#
# Track frame offsets:
#	150
#	11549
#	26782
#	44562
#	62517
#	93493
#	125642
#	143899
#	160748
#	179623
#
# Disc length: 2778 seconds
#
# Revision: 10
# Processed by: cddbd v1.5.2PL0 Copyright (c) Steve Scherf et al.
# Submitted via: Jack! The Knife 20 Magnifico
#
DISCID=890ad80a
DTITLE=Coldplay - Viva La Vida Or Death And All His Friends
DYEAR=2008
DGENRE=BritPop
TTITLE0=Life In Technicolor
TTITLE1=Cemeteries Of London
TTITLE2=Lost!
TTITLE3=42
TTITLE4=Lovers in Japan - Reign Of Love
TTITLE5=Yes
TTITLE6=Viva La Vida
TTITLE7=Violet Hill
TTITLE8=Strawberry Swing
TTITLE9=Death And All His Friends
EXTD=Brian Eno, Markus Dravs, Rik Simpson and Jon Hopkins
EXTT0=Berryman, Buckland, Champion, Martin, Hopkins
EXTT1=Berryman, Buckland, Champion, Martin
EXTT2=Berryman, Buckland, Champion, Martin
EXTT3=Berryman, Buckland, Champion, Martin
EXTT4=Berryman, Buckland, Champion, Martin
EXTT5=Berryman, Buckland, Champion, Martin
EXTT6=Berryman, Buckland, Champion, Martin
EXTT7=Berryman, Buckland, Champion, Martin
EXTT8=Berryman, Buckland, Champion, Martin
EXTT9=Berryman, Buckland, Champion, Martin, Hopkins
PLAYORDER=
